<svg width="163" height="28" viewBox="0 0 163 28" fill="none" xmlns="http://www.w3.org/2000/svg">
<path d="M43.8985 27.9364C40.6745 27.9364 38.0063 26.9199 35.894 24.9029C33.7817 22.8859 32.7176 20.2177 32.7176 16.9301C32.7176 13.7537 33.7975 11.0538 35.9416 8.8144C38.0857 6.59091 40.7697 5.46329 43.962 5.46329C47.4402 5.46329 50.1243 6.62268 51.9825 8.92557C53.7136 11.1173 54.5553 14.119 54.5077 17.9307H37.7998C37.7998 19.5665 38.3557 20.9483 39.4833 22.0759C40.6109 23.2035 42.0244 23.7753 43.7238 23.7753C45.0738 23.7753 46.3126 23.4259 47.4084 22.7271C48.5043 22.0282 49.3302 21.1071 49.8543 19.9953L54.063 21.9647C53.3801 23.5688 52.1889 24.9347 50.4895 26.0305C48.5361 27.3011 46.3443 27.9364 43.8985 27.9364ZM43.8191 9.46556C42.0721 9.46556 40.6109 10.0691 39.4357 11.292C38.4827 12.2926 38.0063 13.2614 38.0063 14.1984H49.6002C49.6002 13.2614 49.2349 12.3402 48.5202 11.4349C47.4402 10.1167 45.8838 9.46556 43.8191 9.46556Z" fill="#1A2C49"/>
<path d="M65.229 27.4123L56.5097 5.89218H61.6237L67.516 20.8531L73.1541 5.89218H78.2363L69.6124 27.4123H65.229Z" fill="#1A2C49"/>
<path d="M92.9571 10.5775C92.1153 10.2758 91.3847 10.1328 90.7812 10.1328C89.3042 10.1328 88.1766 10.7681 87.3825 12.0228C86.7313 13.0551 86.3978 14.278 86.3978 15.7074V27.4125H81.6332V5.89233H86.1913V9.00521C87.2713 6.57526 89.1613 5.35234 91.8771 5.35234C92.83 5.35234 93.7035 5.51116 94.4976 5.84468L92.9571 10.5775Z" fill="#1A2C49"/>
<path d="M106.617 27.9364C103.393 27.9364 100.725 26.9199 98.6127 24.9029C96.5004 22.8859 95.4363 20.2177 95.4363 16.9301C95.4363 13.7537 96.5163 11.0538 98.6604 8.8144C100.804 6.59091 103.488 5.46329 106.681 5.46329C110.159 5.46329 112.843 6.62268 114.701 8.92557C116.432 11.1173 117.274 14.119 117.226 17.9307H100.519C100.519 19.5665 101.074 20.9483 102.202 22.0759C103.33 23.2035 104.743 23.7753 106.443 23.7753C107.793 23.7753 109.015 23.4259 110.127 22.7271C111.223 22.0282 112.049 21.1071 112.573 19.9953L116.782 21.9647C116.099 23.5688 114.908 24.9347 113.208 26.0305C111.271 27.3011 109.079 27.9364 106.617 27.9364ZM106.554 9.46556C104.807 9.46556 103.346 10.0691 102.17 11.292C101.217 12.2926 100.741 13.2614 100.741 14.1984H112.335C112.335 13.2614 111.969 12.3402 111.255 11.4349C110.175 10.1167 108.602 9.46556 106.554 9.46556Z" fill="#1A2C49"/>
<path d="M134.06 27.4124L126.357 16.4379V27.4124H121.482V0H126.357V14.4685L133.584 5.87635H139.365L130.916 15.4056L140.032 27.3965H134.06V27.4124Z" fill="#1A2C49"/>
<path d="M6.28928 11.626C6.28928 11.626 5.3046 8.41782 4.35168 5.28906H2.31878C1.03233 5.30494 0 6.33728 0 7.60784V15.8188C2.46171 15.1836 4.62167 14.6118 4.62167 14.6118C5.93988 14.2783 6.68633 12.9283 6.28928 11.626Z" fill="#1A2C49"/>
<path d="M20.3923 5.30469H8.89374C9.73549 8.0364 10.4978 10.5458 10.4978 10.5458C10.8949 11.8481 12.2925 12.6263 13.6107 12.2769C13.6107 12.2769 18.3118 11.054 22.6952 9.91048V7.9411V7.60758C22.7111 6.33702 21.6629 5.30469 20.3923 5.30469Z" fill="#1A2C49"/>
<path d="M13.2302 19.4242C13.2302 19.4242 14.4532 23.4264 15.8667 28.0005H20.393C21.6636 28.0005 22.7118 26.9681 22.7118 25.6817V14.4055C18.7572 15.4378 14.9137 16.4384 14.9137 16.4384C13.5955 16.7878 12.8332 18.1377 13.2302 19.4242Z" fill="#1A2C49"/>
<path d="M10.9898 27.0793C11.0057 27.0793 11.0216 27.0793 11.0375 27.0793L9.14753 20.7582C9.13165 20.6629 9.09989 20.5835 9.06812 20.5041V20.4882C8.79813 19.7259 8.17873 19.1224 7.40051 18.8524C7.38463 18.8524 7.38463 18.8365 7.36875 18.8365C7.35286 18.8365 7.33698 18.8206 7.3211 18.8206C6.8764 18.6777 6.38406 18.6618 5.92348 18.773C5.92348 18.773 2.98531 19.5353 0.03125 20.3135V25.6816C0.03125 26.9522 1.06358 28.0004 2.35003 28.0004H11.3393C11.244 27.6828 11.1487 27.381 11.0534 27.0793C11.0057 27.0951 10.9898 27.0951 10.9898 27.0793Z" fill="#3DA836"/>
<path d="M158.215 5.89262V8.70374C157.628 7.71906 156.707 6.94084 155.452 6.3532C154.197 5.76557 152.8 5.47969 151.275 5.47969C148.098 5.47969 145.557 6.60731 143.667 8.84668C141.92 10.9431 141.047 13.5954 141.047 16.7718C141.047 20.0276 141.968 22.6958 143.826 24.7922C145.684 26.8887 148.146 27.9528 151.195 27.9528C154.308 27.9528 156.643 26.8093 158.199 24.5222V27.4287H162.678V5.89262H158.215ZM151.64 24.1887C148.098 24.1887 145.224 20.8058 145.224 16.6448C145.224 12.4678 148.098 9.10079 151.64 9.10079C153.689 9.10079 155.515 10.2284 156.691 11.9913C157.215 12.7219 157.58 13.5636 157.786 14.4848C157.961 15.1677 158.056 15.8983 158.056 16.6448C158.056 20.8217 155.182 24.1887 151.64 24.1887Z" fill="#1A2C49"/>
</svg>
